<?xml version="1.0" standalone="no"?>
<!DOCTYPE svg PUBLIC "-//W3C//DTD SVG 20010904//EN"
 "http://www.w3.org/TR/2001/REC-SVG-20010904/DTD/svg10.dtd">
<svg version="1.0" xmlns="http://www.w3.org/2000/svg"
 width="1520.000000pt" height="1724.000000pt" viewBox="0 0 1520.000000 1724.000000"
 preserveAspectRatio="xMidYMid meet">

<g transform="translate(0.000000,1724.000000) scale(0.100000,-0.100000)"
fill="#000000" stroke="none">
<path d="M244 16226 c-3 -8 251 -551 566 -1206 314 -656 569 -1194 567 -1197
-3 -2 -132 7 -288 21 -155 14 -283 25 -285 24 -1 -2 163 -253 365 -559 l367
-555 -33 -60 c-44 -78 -89 -198 -98 -256 -10 -67 23 -133 119 -237 104 -113
135 -153 186 -241 24 -41 79 -128 123 -193 52 -77 83 -134 89 -163 6 -25 8
-47 6 -49 -2 -2 -23 1 -47 6 -24 5 -48 8 -53 7 -5 -2 21 -44 59 -93 l68 -90
12 -135 c7 -74 15 -247 19 -385 6 -232 4 -273 -25 -565 -16 -173 -35 -394 -42
-490 -15 -221 -5 -599 18 -725 15 -82 17 -338 22 -2819 l6 -2728 2653 -1533
2653 -1533 207 119 c114 65 1310 755 2657 1532 l2450 1414 2 3074 3 3074
-2648 1530 c-1456 841 -2656 1530 -2667 1530 -11 -1 -942 -533 -2068 -1183
-1127 -650 -2052 -1182 -2055 -1182 -15 0 -218 405 -206 408 7 2 128 -11 270
-28 141 -16 258 -29 260 -28 1 2 -146 235 -327 518 l-329 515 6 95 c11 175
-27 338 -114 488 -78 135 -134 205 -183 229 -37 19 -47 30 -62 72 -10 28 -33
69 -52 93 -19 24 -48 69 -65 100 -16 31 -44 74 -62 94 -34 39 -99 137 -93 142
1 2 49 -2 105 -8 57 -5 104 -9 105 -8 2 2 -474 717 -1056 1591 -1074 1609
-1085 1625 -1105 1573z m1283 -2065 c336 -515 610 -937 608 -939 -9 -9 -217
21 -265 38 -61 22 -146 26 -184 9 -36 -17 -61 -83 -96 -263 -7 -32 -16 -54
-20 -50 -4 5 -119 177 -255 383 l-246 374 53 -6 c29 -3 140 -13 246 -23 199
-17 222 -15 222 22 0 8 -160 335 -355 727 -195 391 -347 701 -338 688 10 -13
293 -445 630 -960z m232 -959 c45 -64 45 -150 0 -211 -25 -34 -129 -124 -136
-118 -5 6 36 215 54 272 15 49 38 85 54 85 4 0 17 -13 28 -28z m308 -224 c33
-30 30 -73 -6 -107 -16 -15 -97 -62 -180 -105 -90 -47 -151 -84 -151 -93 0
-18 11 -15 165 49 185 77 276 77 303 0 19 -54 1 -70 -184 -162 -181 -89 -204
-104 -204 -126 0 -22 22 -17 121 26 151 67 277 87 339 55 29 -15 60 -60 60
-88 0 -23 -41 -54 -133 -97 -158 -74 -243 -165 -294 -312 -22 -63 -24 -82 -19
-153 l7 -80 -54 80 c-29 44 -75 116 -101 161 -27 45 -92 130 -147 189 -54 59
-108 126 -119 149 -19 40 -19 46 -5 99 8 31 39 105 69 164 45 90 66 120 127
179 170 162 340 235 406 172z m7832 -1832 l2611 -1510 -2 -3025 -3 -3026
-2615 -1508 -2615 -1509 -36 19 c-20 10 -1200 691 -2623 1513 l-2586 1495 0
2464 c0 1355 2 2462 6 2459 3 -3 27 -91 54 -194 79 -308 176 -617 221 -706 19
-36 19 -87 19 -1950 l0 -1913 2471 -1427 2470 -1427 2475 1427 2474 1427 -3
2859 -2 2858 -2465 1425 c-1456 841 -2472 1422 -2482 1419 -9 -2 -900 -513
-1979 -1136 -1844 -1064 -1964 -1131 -1977 -1114 -18 24 -124 235 -120 239 17
14 4084 2355 4089 2353 3 -2 1181 -682 2618 -1512z m-7560 1092 c22 -16 163
-228 450 -678 230 -360 415 -656 410 -658 -4 -2 -107 9 -229 23 -121 15 -227
25 -235 21 -8 -3 -15 -17 -15 -31 0 -20 525 -1002 617 -1155 9 -14 11 -20 5
-15 -21 19 -1201 1619 -1198 1623 2 2 101 -15 220 -38 119 -23 226 -40 238
-38 54 7 38 39 -227 440 -140 214 -255 392 -255 397 0 15 99 101 133 116 43
19 49 19 86 -7z m7283 -1569 l2338 -1351 0 -2707 -1 -2706 -225 -129 c-124
-70 -227 -126 -230 -123 -3 3 -72 272 -154 599 -215 862 -279 1064 -446 1420
-236 504 -416 754 -633 882 -81 47 -262 133 -406 193 l-70 29 -6 131 c-5 121
-7 135 -37 196 -23 46 -52 84 -96 124 -136 125 -140 152 -32 263 49 50 86 99
104 136 26 58 27 63 27 239 0 203 -11 260 -70 381 -29 60 -52 88 -137 165 -58
55 -107 109 -116 129 -10 23 -18 95 -23 215 -4 99 -15 216 -23 260 -20 102
-94 252 -179 358 l-62 77 0 123 c0 113 -2 126 -27 175 -23 43 -28 67 -28 122
0 172 -122 369 -249 403 -39 11 -46 18 -73 71 -54 106 -160 195 -278 231 -14
4 -60 45 -103 91 -148 158 -250 204 -451 204 -133 0 -219 -16 -294 -54 l-48
-24 -50 29 c-120 71 -292 102 -426 75 -130 -25 -212 -77 -313 -195 -5 -6 -52
-38 -104 -70 -167 -103 -239 -193 -262 -328 -5 -32 -7 -81 -3 -109 l6 -52 -68
-33 c-88 -43 -169 -124 -211 -209 -34 -69 -63 -192 -63 -262 0 -65 26 -175 53
-221 20 -36 22 -53 19 -119 l-4 -77 -54 -41 c-110 -83 -195 -226 -214 -359
-19 -138 19 -381 76 -478 23 -40 24 -44 9 -72 -24 -47 -45 -150 -45 -225 0
-67 -1 -70 -41 -113 -61 -67 -100 -157 -104 -245 -2 -40 -8 -73 -12 -73 -4 0
-71 6 -148 13 -77 7 -235 19 -351 26 l-211 14 -79 39 c-43 22 -180 100 -304
174 -391 231 -542 298 -858 380 -68 18 -138 41 -155 53 -50 33 -75 97 -142
373 -35 142 -95 368 -133 503 -95 333 -112 393 -109 396 1 1 151 -198 332
-442 292 -392 333 -443 355 -441 18 1 24 7 23 22 -1 11 -126 258 -278 548
-152 290 -275 532 -273 537 3 11 3806 2209 3822 2210 5 0 1061 -608 2348
-1351z m-7489 475 c110 -149 105 -132 131 -424 20 -221 34 -473 46 -840 12
-366 17 -462 36 -685 51 -593 163 -1290 279 -1740 19 -71 33 -131 31 -132 -1
-2 -42 28 -91 65 -152 115 -215 231 -330 613 -101 334 -201 767 -239 1029 -51
351 -48 589 15 1245 29 300 31 337 25 590 -3 149 -9 306 -12 350 -4 51 -3 76
3 70 6 -5 53 -69 106 -141z m5229 -310 c58 -14 141 -51 190 -85 34 -25 51 -24
96 5 75 48 136 61 287 61 l141 0 75 -37 c79 -39 182 -126 234 -197 18 -24 44
-45 64 -52 55 -19 192 -162 229 -239 34 -70 81 -235 70 -246 -11 -11 -71 32
-124 88 -49 53 -72 87 -154 228 -24 42 -75 106 -115 146 -187 186 -520 253
-681 135 l-40 -28 -59 44 c-74 56 -177 108 -253 129 -75 20 -250 20 -317 0
-43 -13 -47 -13 -31 -1 31 23 125 55 186 64 63 9 121 5 202 -15z m-32 -131
c89 -34 178 -93 251 -164 43 -42 56 -49 68 -40 72 51 191 91 272 91 74 0 187
-27 264 -64 104 -49 178 -123 289 -290 99 -149 182 -239 252 -270 86 -39 108
-53 163 -111 99 -103 145 -242 121 -362 -12 -59 -51 -146 -70 -158 -11 -7
-229 52 -243 65 -5 4 7 13 26 19 50 17 114 65 132 100 l15 30 -77 -39 c-82
-42 -196 -70 -280 -70 -46 0 -143 36 -157 58 -3 5 23 12 62 16 164 17 288 61
341 122 45 50 38 58 -21 25 -76 -43 -190 -78 -290 -91 -78 -9 -96 -8 -170 10
-92 24 -151 58 -185 109 -37 55 -30 60 45 35 96 -32 279 -49 373 -35 90 14
187 59 228 106 17 20 31 40 31 44 0 5 -18 5 -39 0 -69 -15 -180 15 -276 76
-82 53 -138 109 -239 239 -168 216 -230 260 -362 260 -67 0 -91 -5 -130 -25
-59 -30 -108 -97 -118 -160 l-7 -44 -18 41 c-23 51 -64 80 -131 95 -122 26
-209 -12 -336 -149 -107 -115 -151 -141 -344 -207 -72 -25 -159 -59 -193 -76
-189 -95 -291 -219 -336 -407 l-18 -77 -27 57 c-100 212 -5 492 204 598 19 10
85 34 145 55 174 59 290 124 469 263 117 90 181 114 303 114 90 -1 160 -20
236 -66 l57 -35 -17 31 c-61 104 -224 158 -411 137 -124 -14 -166 -36 -264
-138 -45 -48 -108 -102 -138 -119 -95 -55 -222 -86 -274 -66 -10 4 -16 18 -16
38 0 115 104 236 297 346 194 111 227 121 368 116 82 -2 114 -8 175 -33z m625
-378 c56 -32 133 -116 258 -282 60 -78 129 -160 154 -182 49 -44 135 -81 185
-81 63 0 12 -21 -79 -32 -157 -19 -306 10 -447 89 -50 28 -93 65 -164 141 -92
100 -147 139 -215 156 -27 6 -27 7 -11 38 9 17 37 53 62 80 103 110 162 127
257 73z m-463 -74 c41 -26 107 -97 97 -104 -2 -2 -26 -16 -53 -31 -57 -33
-171 -140 -241 -226 -54 -66 -148 -143 -205 -168 -19 -8 -73 -18 -120 -22
-198 -17 -389 -125 -645 -364 -53 -49 -98 -86 -102 -82 -18 18 16 158 60 248
83 171 149 224 405 327 247 99 284 123 442 276 110 107 147 136 191 153 76 29
116 28 171 -7z m156 -222 c68 -113 106 -294 106 -514 1 -192 -13 -246 -83
-314 -27 -25 -52 -57 -56 -71 -5 -14 -8 -136 -6 -272 2 -244 -5 -318 -32 -335
-6 -4 -47 -8 -90 -8 -76 0 -79 -1 -217 -73 -77 -39 -152 -72 -166 -72 -30 0
-232 117 -283 164 -69 63 -87 154 -56 281 16 64 18 165 6 230 -5 32 -2 51 17
92 13 29 30 87 39 130 14 73 19 81 69 130 65 65 111 131 140 202 18 45 28 56
57 66 91 31 165 92 291 239 65 75 202 189 220 183 6 -2 26 -28 44 -58z m-658
-403 c0 -26 -79 -131 -152 -202 -52 -51 -98 -84 -158 -114 -109 -55 -136 -74
-350 -245 -167 -134 -352 -265 -373 -265 -16 0 3 73 38 146 49 100 109 163
239 248 61 40 162 116 223 169 185 158 287 218 437 257 87 23 96 24 96 6z
m1562 -291 c51 -13 152 -34 225 -45 189 -28 278 -67 339 -148 38 -49 73 -139
74 -186 l0 -38 -37 34 c-84 75 -182 116 -354 148 -68 13 -138 33 -174 50 -78
37 -142 103 -160 163 -8 26 -12 47 -10 47 2 0 45 -11 97 -25z m-1786 -97 c-8
-24 -26 -69 -41 -101 -30 -65 -43 -75 -204 -162 -51 -27 -150 -94 -221 -147
-71 -53 -166 -120 -212 -148 -56 -35 -73 -50 -53 -45 72 16 186 74 318 160
127 83 347 205 371 205 14 0 -1 -152 -19 -198 -12 -29 -35 -54 -83 -90 -70
-52 -123 -109 -236 -256 -93 -120 -237 -269 -312 -322 -34 -24 -66 -44 -71
-44 -6 0 -8 12 -6 28 8 44 44 151 54 157 17 11 9 42 -25 100 -39 64 -65 163
-73 276 l-6 75 130 79 c161 96 274 176 403 286 96 81 259 189 286 189 11 0 11
-8 0 -42z m2096 -280 c123 -65 208 -195 215 -328 4 -64 -1 -93 -31 -197 -20
-67 -36 -127 -36 -134 0 -6 -10 -31 -21 -54 l-22 -43 -58 45 c-33 25 -66 58
-74 73 -27 53 -33 146 -20 306 12 151 8 231 -15 274 -6 12 -28 40 -48 62 l-37
41 44 -7 c25 -4 71 -21 103 -38z m235 -57 c126 -96 156 -157 157 -321 0 -58
-6 -132 -13 -166 -21 -90 -9 -107 109 -167 52 -26 112 -65 134 -85 48 -47 86
-124 86 -179 0 -40 -41 -168 -59 -186 -5 -5 -24 6 -42 23 -19 18 -86 71 -149
119 -222 169 -248 222 -210 425 47 254 11 442 -111 580 -42 47 -42 48 -12 32
17 -8 67 -42 110 -75z m-754 61 c27 -29 31 -77 13 -126 -13 -34 -39 -63 -108
-123 -182 -155 -210 -167 -271 -113 -39 34 -92 129 -102 181 -5 29 -2 41 17
63 20 23 36 28 134 41 113 14 167 31 239 72 48 28 57 28 78 5z m343 -14 c34
-23 57 -48 73 -82 l24 -49 -14 -166 c-8 -91 -14 -209 -14 -261 0 -108 9 -130
80 -210 79 -89 79 -90 61 -164 -9 -36 -19 -95 -22 -133 -3 -37 -17 -102 -32
-143 l-27 -75 -7 95 c-8 108 -39 213 -95 323 -40 79 -38 57 -31 332 4 176 -34
308 -96 336 -45 21 -41 99 8 184 15 25 31 45 35 45 5 0 31 -15 57 -32z m-2109
-530 c0 -62 2 -121 4 -132 3 -15 -9 -23 -65 -42 -228 -78 -377 -202 -497 -414
-35 -62 -86 -138 -114 -168 l-50 -55 -6 31 c-9 47 7 126 37 182 30 54 93 116
229 225 106 84 178 165 265 292 46 68 83 110 128 145 35 26 64 48 65 48 2 0 3
-51 4 -112z m226 13 c69 -48 104 -92 165 -206 64 -121 99 -155 161 -155 43 0
153 39 316 112 116 51 123 53 210 53 83 0 98 -4 200 -45 129 -53 164 -80 205
-164 45 -91 49 -172 16 -303 -19 -74 -26 -125 -25 -190 l1 -88 17 65 c10 36
34 109 55 162 71 183 82 266 46 360 -11 29 -20 54 -20 56 0 1 10 2 23 2 35 0
84 36 120 86 l32 45 18 -43 c54 -126 87 -268 87 -372 0 -114 -21 -171 -161
-435 -41 -77 -44 -89 -47 -171 -4 -102 11 -166 64 -272 33 -65 80 -246 67
-258 -3 -3 -8 0 -10 7 -2 7 -35 35 -73 63 -91 68 -200 185 -200 216 0 13 -18
94 -41 181 -78 300 -73 257 -54 458 15 167 15 186 0 259 -16 77 -63 211 -72
203 -2 -2 1 -26 7 -52 16 -72 14 -207 -5 -335 -24 -164 -17 -300 25 -459 28
-109 32 -136 28 -215 -6 -109 -19 -143 -119 -297 -96 -150 -113 -190 -113
-269 -1 -36 3 -78 7 -93 8 -28 8 -28 -20 -13 -102 53 -141 196 -94 341 44 132
76 316 75 420 -1 55 -3 183 -5 285 -2 138 1 214 14 298 17 116 21 218 8 262
-7 23 -8 24 -14 5 -19 -57 -78 -428 -87 -545 -15 -196 -27 -264 -61 -359 -110
-305 -132 -378 -137 -448 -2 -40 0 -86 7 -103 10 -29 9 -31 -5 -19 -49 40 -56
119 -23 256 26 106 29 232 7 284 -9 19 -41 77 -71 128 -63 104 -91 172 -114
276 -25 113 -32 119 -32 25 -1 -54 8 -129 24 -205 34 -165 33 -198 -16 -340
-37 -105 -42 -131 -42 -210 0 -71 4 -101 21 -140 l22 -50 -39 42 c-62 64 -76
124 -76 320 0 131 -3 164 -14 168 -22 8 -69 -43 -100 -108 -33 -68 -31 -71
-51 98 -10 76 -10 121 -2 183 14 98 6 147 -44 287 -36 98 -37 103 -41 285 -3
102 -9 191 -13 198 -11 22 -43 -195 -43 -293 1 -102 15 -151 68 -231 39 -58
42 -69 21 -81 -7 -4 -15 -14 -17 -22 -6 -17 -79 93 -108 162 -61 143 -73 344
-37 595 19 127 19 136 3 215 -21 101 -21 141 -2 161 19 18 46 10 108 -33z
m983 38 c35 -9 51 -20 73 -53 31 -47 84 -166 77 -174 -8 -7 -128 19 -144 31
-7 6 -29 44 -48 86 -19 42 -44 86 -56 98 l-21 23 37 0 c20 0 57 -5 82 -11z
m-277 -10 c25 -9 42 -9 70 1 29 9 43 9 59 1 19 -10 72 -107 87 -159 6 -21 4
-22 -22 -16 -52 14 -177 8 -237 -10 -32 -9 -60 -15 -63 -12 -10 9 30 157 49
181 11 14 21 25 22 25 2 0 18 -5 35 -11z m-119 -31 c0 -21 -29 -141 -41 -169
-7 -18 -25 -32 -55 -44 -25 -9 -47 -15 -49 -13 -3 3 4 27 14 54 11 27 27 71
36 97 12 34 27 55 49 68 36 22 46 24 46 7z m655 -109 c45 -64 26 -96 -51 -87
-26 3 -31 11 -61 93 -18 50 -33 91 -33 93 0 2 27 -12 60 -30 34 -18 72 -49 85
-69z m-812 -40 c-21 -51 -43 -94 -49 -96 -7 -2 -19 3 -27 12 -18 18 -10 56 23
110 19 30 79 79 88 70 2 -1 -14 -45 -35 -96z m1397 -204 c26 -91 29 -175 10
-255 -13 -57 -70 -194 -77 -186 -2 2 6 41 18 87 30 113 30 232 0 365 -19 89
-21 108 -10 145 l12 44 12 -60 c6 -33 22 -96 35 -140z m410 -60 c-4 -33 -4
-92 1 -132 23 -195 123 -332 267 -365 45 -10 52 -15 50 -32 -3 -19 -9 -21 -63
-19 -127 3 -255 81 -310 188 -27 53 -30 67 -29 154 0 90 18 183 54 275 10 28
11 28 24 10 9 -14 11 -36 6 -79z m-2510 82 c0 -2 -20 -25 -45 -52 -55 -59 -98
-132 -119 -204 -21 -72 -21 -214 1 -327 9 -49 17 -118 17 -154 -1 -120 -65
-232 -165 -289 l-42 -23 29 37 c23 31 29 50 32 106 5 83 -18 192 -58 277 -70
149 -55 266 52 387 35 40 30 44 -18 14 -41 -25 -83 -84 -119 -165 -14 -32 -37
-73 -50 -90 -24 -32 -27 -33 -78 -27 -49 5 -91 23 -54 23 27 0 79 60 144 166
34 54 79 120 102 146 44 50 138 113 211 142 49 20 160 42 160 33z m2686 -147
c114 -70 188 -130 227 -187 l27 -40 -47 -84 c-25 -46 -48 -86 -50 -88 -7 -10
-121 70 -174 124 -73 73 -99 135 -99 235 0 59 6 100 15 100 1 0 47 -27 101
-60z m-2691 7 c-33 -80 -12 -247 55 -424 21 -57 43 -126 48 -155 16 -83 23
-150 14 -146 -4 2 -37 20 -73 41 -65 36 -67 39 -73 85 -3 26 -20 94 -36 152
-58 199 -49 308 35 434 42 63 53 68 30 13z m2204 -115 c16 -76 14 -184 -5
-239 -23 -67 -62 -120 -178 -242 -70 -74 -116 -133 -148 -191 -42 -75 -48 -81
-48 -54 0 65 39 131 183 309 133 164 167 246 169 400 2 93 10 99 27 17z
m-5420 -5 c6 -8 31 -73 56 -146 77 -225 152 -350 299 -497 101 -101 196 -169
334 -238 114 -57 175 -82 522 -208 565 -206 800 -311 800 -358 0 -26 -56 -14
-259 57 -102 35 -256 82 -341 104 -228 59 -308 85 -475 150 -184 72 -358 159
-490 246 -119 79 -287 242 -333 324 -76 135 -172 421 -172 513 0 58 31 86 59
53z m2217 -252 c322 -25 570 -69 582 -103 5 -15 -103 -16 -238 -2 -52 6 -176
17 -275 26 -99 8 -207 21 -241 29 -73 17 -171 53 -179 66 -7 10 32 8 351 -16z
m3456 -71 c24 -26 66 -61 95 -80 73 -47 85 -75 93 -224 9 -170 35 -225 128
-276 l47 -25 -88 6 c-49 3 -118 12 -153 21 -57 15 -64 19 -74 50 -6 18 -36 72
-67 121 -86 138 -96 161 -97 228 -1 48 6 78 34 143 19 45 36 82 37 82 2 0 22
-21 45 -46z m-180 -264 c14 -30 47 -86 73 -125 45 -66 80 -133 73 -141 -2 -1
-37 6 -78 17 -40 10 -98 19 -128 19 -47 0 -57 -4 -83 -31 -15 -16 -40 -55 -55
-87 l-26 -56 -16 29 c-25 48 -43 126 -43 190 -1 100 31 163 146 295 31 36 62
76 68 89 10 21 13 15 28 -60 9 -46 28 -109 41 -139z m574 97 c10 -22 62 -89
116 -150 54 -61 109 -134 123 -163 14 -29 34 -103 46 -166 40 -214 64 -271
134 -316 11 -7 2 -4 -20 7 -22 11 -59 36 -82 55 -48 42 -167 200 -201 268 -28
55 -62 89 -149 148 -103 70 -107 77 -108 228 l-2 127 63 1 62 1 18 -40z
m-6616 -209 c357 -335 584 -499 903 -654 512 -249 862 -447 1006 -570 81 -70
196 -250 321 -506 87 -176 135 -306 180 -483 52 -203 152 -475 300 -820 69
-159 69 -161 85 -310 20 -197 61 -486 86 -603 30 -145 45 -201 124 -438 101
-305 110 -348 95 -499 -6 -66 -12 -142 -13 -170 -1 -27 -6 -49 -12 -48 -5 1
-740 424 -1632 939 l-1623 937 0 727 c0 400 3 1159 7 1688 6 876 8 961 22 949
9 -6 77 -69 151 -139z m2894 -34 c187 -74 215 -94 468 -322 176 -160 277 -212
407 -212 84 0 139 19 207 70 l52 39 39 -28 c139 -100 353 -449 407 -661 62
-245 62 -570 1 -937 -60 -357 -161 -496 -400 -548 -110 -25 -380 -30 -497 -11
-197 32 -345 93 -419 173 -123 132 -154 223 -245 738 -14 83 -35 179 -46 215
-28 90 -138 360 -186 456 -82 162 -114 325 -114 569 -1 261 40 430 114 475 49
30 106 26 212 -16z m3281 -177 c136 -39 130 -33 191 -177 130 -309 272 -830
329 -1205 69 -460 90 -824 105 -1810 6 -363 15 -757 20 -875 15 -343 18 -315
-35 -346 -25 -14 -48 -24 -51 -21 -16 16 -24 356 -22 952 3 700 -1 808 -42
1050 -20 120 -61 259 -84 290 -13 18 -13 14 -1 -35 44 -167 49 -247 46 -695
-4 -624 19 -1046 84 -1535 l6 -45 -135 -77 -135 -76 -5 26 c-3 15 -33 194 -66
397 -107 656 -183 1040 -316 1590 -190 787 -292 1313 -310 1592 -10 174 34
613 82 795 18 71 63 174 95 219 21 30 25 31 73 26 28 -3 105 -21 171 -40z
m475 -97 c40 -21 100 -82 154 -157 49 -69 127 -138 186 -165 44 -20 55 -33
128 -153 154 -250 253 -459 317 -670 52 -174 69 -301 70 -525 0 -274 -23 -440
-131 -953 -69 -327 -140 -838 -186 -1335 l-12 -133 -98 -56 c-54 -30 -101 -53
-104 -51 -7 7 14 781 27 1003 5 99 19 302 30 450 69 961 42 1414 -111 1876
-91 276 -259 659 -370 848 l-32 54 48 -8 c27 -4 64 -15 84 -25z m-1176 -180
c-10 -56 -39 -101 -111 -171 -80 -78 -147 -125 -223 -156 -83 -34 -94 -32 -87
18 7 57 45 127 132 249 71 99 100 149 125 213 l10 28 80 -73 c77 -70 80 -75
74 -108z m2253 -366 c99 -122 185 -267 323 -549 212 -432 258 -573 500 -1540
76 -302 139 -556 141 -564 3 -9 -176 -118 -546 -332 -302 -175 -563 -326 -580
-335 l-30 -18 19 29 c45 70 157 206 231 280 105 106 206 186 346 278 63 41
121 82 128 91 59 71 -286 -43 -474 -158 -150 -90 -203 -143 -283 -283 -24 -44
-31 -50 -26 -28 7 34 93 289 179 530 113 319 147 497 166 876 28 562 -55 1286
-197 1717 -25 75 -48 144 -51 152 -13 32 85 -61 154 -146z m-2019 -74 c-26
-291 18 -624 173 -1327 l60 -272 -30 -45 c-103 -149 -327 -214 -608 -175 -366
50 -590 275 -649 652 -21 132 -15 530 10 625 25 99 64 168 126 225 73 68 123
94 321 168 164 61 317 127 504 218 55 26 101 48 102 47 1 -1 -3 -53 -9 -116z
m-3543 -387 c192 -75 479 -241 521 -302 50 -74 105 -254 129 -426 l7 -50 -88
123 c-145 203 -212 262 -442 385 -78 42 -99 58 -121 94 -14 25 -52 85 -84 135
-65 101 -70 99 78 41z m1840 -1605 c44 -41 69 -111 94 -261 38 -224 44 -382
45 -1257 1 -574 6 -900 15 -1015 7 -93 11 -195 9 -226 l-3 -56 -322 186 -322
186 -6 80 c-4 44 -7 130 -8 190 -3 174 14 188 250 208 94 8 148 16 150 24 3 7
-12 13 -39 17 -24 2 -86 10 -138 16 -109 13 -189 44 -216 85 -55 84 -60 427
-8 603 18 63 39 75 156 92 87 13 118 24 118 44 0 23 -27 33 -125 46 -103 13
-130 24 -159 63 -19 26 -21 42 -20 160 1 153 30 303 86 454 47 124 91 196 168
274 78 78 126 103 233 118 4 1 23 -14 42 -31z m808 -32 c58 -25 140 -133 194
-254 56 -126 118 -455 111 -583 -7 -123 -35 -150 -179 -169 -112 -15 -127 -19
-134 -38 -9 -24 6 -32 96 -47 119 -19 134 -24 158 -49 66 -70 81 -545 21 -644
-28 -46 -108 -79 -220 -92 -176 -20 -181 -21 -177 -33 2 -8 53 -16 138 -23
211 -18 238 -30 265 -119 32 -107 37 -409 9 -559 -9 -44 12 -30 -320 -222
-249 -144 -261 -150 -287 -137 -15 7 -29 17 -32 21 -6 10 -36 297 -36 343 0
23 5 29 21 29 33 0 59 19 59 44 0 23 -11 30 -71 49 -23 7 -25 115 -24 952 1
609 4 729 18 840 26 196 84 518 100 556 47 113 188 179 290 135z m1074 -1548
c40 -43 45 -92 28 -265 -8 -87 -15 -206 -15 -265 l0 -106 -64 -36 c-35 -20
-67 -36 -70 -36 -3 0 -6 22 -6 49 0 27 -7 111 -16 188 -22 196 -22 356 1 411
32 77 100 106 142 60z"/>
<path d="M6988 10656 c-70 -25 -128 -67 -225 -163 -54 -53 -116 -104 -138
-114 -26 -12 -33 -19 -20 -19 39 0 121 48 225 131 58 47 130 95 160 108 52 22
172 49 235 52 30 1 30 1 5 9 -40 13 -202 10 -242 -4z"/>
<path d="M7953 10486 c32 -13 76 -37 98 -52 56 -39 155 -146 221 -240 117
-168 287 -281 449 -299 l54 -6 -73 30 c-175 71 -314 184 -423 344 -123 179
-197 236 -319 244 l-65 4 58 -25z"/>
<path d="M7127 10409 c-103 -24 -175 -81 -277 -219 -91 -122 -122 -147 -241
-194 -46 -18 -102 -42 -124 -54 -42 -21 -107 -82 -88 -82 6 0 16 7 24 16 19
23 75 49 159 73 173 50 188 61 295 206 111 150 169 196 305 242 63 22 64 22
25 22 -22 -1 -57 -5 -78 -10z"/>
<path d="M7720 10175 c-24 -14 -24 -14 12 -8 51 8 85 -16 200 -140 69 -74 113
-112 156 -135 63 -34 142 -65 149 -59 2 2 -27 22 -64 43 -47 27 -107 78 -193
166 -69 70 -138 131 -153 137 -38 15 -77 13 -107 -4z"/>
<path d="M7417 10108 c-25 -18 -82 -63 -127 -100 -109 -88 -197 -131 -360
-173 -182 -47 -300 -106 -388 -192 -69 -66 -68 -70 5 -20 81 54 229 115 391
161 236 66 276 87 399 214 56 57 114 113 130 123 19 13 23 19 12 19 -9 0 -37
-15 -62 -32z"/>
<path d="M7113 9300 c-99 -21 -259 -107 -274 -148 -22 -57 -4 -90 109 -199 59
-57 134 -122 167 -144 56 -39 63 -41 115 -36 76 7 166 44 212 88 l38 36 0 99
c0 110 -5 122 -79 206 -72 81 -185 120 -288 98z"/>
<path d="M8545 9260 c68 -71 112 -86 287 -100 70 -5 143 -16 163 -24 47 -20
35 -1 -17 25 -24 12 -76 24 -131 30 -141 15 -187 26 -262 65 l-70 36 30 -32z"/>
<path d="M6603 8866 c-82 -20 -153 -60 -230 -131 -40 -37 -73 -71 -73 -76 0
-5 31 13 68 41 98 71 187 123 262 153 69 28 58 33 -27 13z"/>
<path d="M6510 8727 c-105 -43 -194 -120 -293 -255 -51 -70 -111 -171 -105
-177 2 -2 49 48 103 111 118 138 232 247 316 303 68 46 61 52 -21 18z"/>
<path d="M8889 8868 c62 -87 77 -208 45 -377 -16 -86 -15 -193 2 -224 6 -10 9
14 10 66 1 67 8 102 37 189 42 120 44 144 20 218 -17 52 -85 140 -126 161 -16
9 -13 2 12 -33z"/>
<path d="M9181 8585 c-1 -33 -8 -120 -16 -194 -16 -156 -10 -211 34 -274 38
-55 72 -85 156 -140 39 -26 82 -56 98 -67 15 -12 27 -19 27 -15 0 18 -49 71
-135 144 -53 46 -106 101 -121 127 -29 50 -30 58 -26 299 2 66 -2 134 -7 150
-8 26 -9 23 -10 -30z"/>
<path d="M6806 8278 c-8 -42 12 -138 43 -212 27 -62 51 -198 52 -295 0 -94 12
-72 29 57 18 138 3 225 -60 357 -21 44 -42 91 -47 105 -10 24 -10 24 -17 -12z"/>
<path d="M7465 8091 c-54 -8 -57 -33 -8 -57 58 -28 218 -26 295 5 63 24 78 38
57 52 -15 10 -281 10 -344 0z"/>
<path d="M7021 8075 c0 -5 4 -30 10 -55 28 -123 29 -180 3 -308 -39 -201 -28
-356 32 -450 25 -38 64 -150 65 -185 0 -27 2 -29 9 -12 15 36 10 99 -15 190
-40 142 -48 256 -29 415 20 163 11 242 -41 347 -18 37 -34 64 -34 58z"/>
<path d="M8287 7968 c8 -128 -6 -181 -92 -357 -41 -83 -81 -175 -90 -203 -22
-74 -19 -192 6 -274 25 -81 100 -237 134 -279 l24 -30 -15 55 c-9 30 -31 93
-48 140 -46 120 -59 183 -53 254 7 81 25 131 116 321 l76 160 -1 90 c0 68 -6
104 -23 147 -12 32 -26 60 -31 63 -5 3 -6 -36 -3 -87z"/>
<path d="M7251 7950 c6 -19 15 -143 19 -275 6 -207 10 -248 28 -298 19 -52 78
-167 86 -167 2 0 -8 42 -22 93 -22 82 -25 113 -27 292 -1 179 -4 207 -24 266
-13 36 -33 79 -47 95 l-23 29 10 -35z"/>
<path d="M7472 7883 c-37 -80 -40 -169 -12 -358 19 -127 22 -176 17 -320 -5
-157 -5 -167 8 -125 47 145 57 330 29 517 -11 75 -15 144 -11 226 3 64 3 117
1 117 -3 0 -17 -26 -32 -57z"/>
<path d="M7797 7480 c-17 -61 -19 -235 -3 -303 26 -109 22 -138 -35 -260 -89
-191 -116 -293 -103 -386 l7 -56 9 59 c10 73 46 152 128 281 115 181 124 251
60 450 -22 68 -44 150 -48 182 -6 47 -9 53 -15 33z"/>
<path d="M7461 7014 c0 -11 3 -14 6 -6 3 7 2 16 -1 19 -3 4 -6 -2 -5 -13z"/>
<path d="M8658 7293 c-32 -36 -67 -85 -78 -109 -26 -52 -36 -136 -22 -184 11
-41 15 -32 30 63 8 53 23 92 64 165 49 87 71 133 65 132 -1 -1 -28 -30 -59
-67z"/>
<path d="M9323 7284 c3 -11 8 -41 12 -69 11 -82 32 -119 109 -192 41 -38 83
-87 94 -109 20 -38 21 -38 22 -11 0 51 -30 101 -104 173 -68 64 -76 77 -96
142 -12 40 -26 75 -32 78 -6 4 -8 -1 -5 -12z"/>
<path d="M6030 4779 c0 -39 47 -86 95 -95 39 -7 55 0 55 25 0 42 -72 101 -125
101 -21 0 -25 -4 -25 -31z"/>
<path d="M8877 6863 c-78 -154 -138 -596 -139 -1018 0 -339 15 -441 171 -1186
95 -451 142 -696 241 -1239 55 -305 102 -525 114 -537 3 -3 10 -2 17 3 26 16
-8 485 -67 924 -52 392 -113 717 -189 1015 -42 166 -62 286 -87 510 -8 74 -12
339 -13 820 0 391 -4 716 -9 723 -12 19 -24 14 -39 -15z"/>
<path d="M9074 6155 c-15 -177 -9 -609 10 -779 27 -238 108 -673 179 -961 l32
-130 3 63 c4 84 -19 253 -73 539 -76 399 -102 624 -129 1138 l-12 240 -10
-110z"/>
<path d="M9915 5580 c132 -330 155 -628 84 -1102 -25 -169 -79 -436 -123 -603
-19 -71 -33 -131 -31 -133 1 -1 23 46 50 105 125 285 190 567 216 946 14 198
3 338 -36 487 -29 106 -117 297 -164 350 l-30 35 34 -85z"/>
<path d="M10715 5449 c21 -223 26 -351 22 -601 -4 -243 -7 -297 -26 -382 -31
-137 -71 -260 -156 -470 -68 -168 -105 -275 -105 -300 0 -31 153 252 223 414
66 151 109 284 137 418 46 226 12 629 -75 892 -23 70 -24 72 -20 29z"/>
<path d="M11091 4230 c-215 -105 -334 -211 -476 -425 -51 -77 -109 -174 -129
-215 l-37 -75 57 60 c31 33 115 128 186 210 134 155 253 271 421 408 131 108
130 111 -22 37z"/>
<path d="M8333 4619 c-61 -18 -52 -75 17 -103 56 -22 115 -21 140 4 22 22 24
33 10 59 -18 34 -111 56 -167 40z"/>
</g>
</svg>
